<mxfile host="app.diagrams.net" modified="2024-01-15T12:11:49.625Z" agent="Mozilla/5.0 (Windows NT 10.0; Win64; x64) AppleWebKit/537.36 (KHTML, like Gecko) Chrome/120.0.0.0 Safari/537.36 Edg/120.0.0.0" etag="W4an0_2oM2KYovF3phgF" version="22.1.18" type="github">
  <diagram id="C5RBs43oDa-KdzZeNtuy" name="Page-1">
    <mxGraphModel dx="1426" dy="759" grid="1" gridSize="10" guides="1" tooltips="1" connect="1" arrows="1" fold="1" page="1" pageScale="1" pageWidth="1169" pageHeight="1654" math="0" shadow="0">
      <root>
        <mxCell id="WIyWlLk6GJQsqaUBKTNV-0" />
        <mxCell id="WIyWlLk6GJQsqaUBKTNV-1" parent="WIyWlLk6GJQsqaUBKTNV-0" />
        <mxCell id="sLp0pAGS3h8WQUydBQSM-25" value="LCD" style="swimlane;fontStyle=0;align=center;verticalAlign=top;childLayout=stackLayout;horizontal=1;startSize=26;horizontalStack=0;resizeParent=1;resizeLast=0;collapsible=1;marginBottom=0;rounded=0;shadow=0;strokeWidth=1;" parent="WIyWlLk6GJQsqaUBKTNV-1" vertex="1">
          <mxGeometry x="595" y="380" width="160" height="120" as="geometry">
            <mxRectangle x="550" y="140" width="160" height="26" as="alternateBounds" />
          </mxGeometry>
        </mxCell>
        <mxCell id="sLp0pAGS3h8WQUydBQSM-26" value="Show Address Node" style="text;align=left;verticalAlign=top;spacingLeft=4;spacingRight=4;overflow=hidden;rotatable=0;points=[[0,0.5],[1,0.5]];portConstraint=eastwest;rounded=0;shadow=0;html=0;" parent="sLp0pAGS3h8WQUydBQSM-25" vertex="1">
          <mxGeometry y="26" width="160" height="26" as="geometry" />
        </mxCell>
        <mxCell id="sLp0pAGS3h8WQUydBQSM-27" value="Show data Node" style="text;align=left;verticalAlign=top;spacingLeft=4;spacingRight=4;overflow=hidden;rotatable=0;points=[[0,0.5],[1,0.5]];portConstraint=eastwest;rounded=0;shadow=0;html=0;" parent="sLp0pAGS3h8WQUydBQSM-25" vertex="1">
          <mxGeometry y="52" width="160" height="26" as="geometry" />
        </mxCell>
        <mxCell id="sLp0pAGS3h8WQUydBQSM-28" value="Config WiFi" style="text;align=left;verticalAlign=top;spacingLeft=4;spacingRight=4;overflow=hidden;rotatable=0;points=[[0,0.5],[1,0.5]];portConstraint=eastwest;rounded=0;shadow=0;html=0;" parent="sLp0pAGS3h8WQUydBQSM-25" vertex="1">
          <mxGeometry y="78" width="160" height="26" as="geometry" />
        </mxCell>
        <mxCell id="zkfFHV4jXpPFQw0GAbJ--0" value="STM32" style="swimlane;fontStyle=2;align=center;verticalAlign=top;childLayout=stackLayout;horizontal=1;startSize=26;horizontalStack=0;resizeParent=1;resizeLast=0;collapsible=1;marginBottom=0;rounded=0;shadow=0;strokeWidth=1;" parent="WIyWlLk6GJQsqaUBKTNV-1" vertex="1">
          <mxGeometry x="275" y="190" width="160" height="140" as="geometry">
            <mxRectangle x="230" y="140" width="160" height="26" as="alternateBounds" />
          </mxGeometry>
        </mxCell>
        <mxCell id="zkfFHV4jXpPFQw0GAbJ--1" value="ETHERNET" style="text;align=left;verticalAlign=top;spacingLeft=4;spacingRight=4;overflow=hidden;rotatable=0;points=[[0,0.5],[1,0.5]];portConstraint=eastwest;" parent="zkfFHV4jXpPFQw0GAbJ--0" vertex="1">
          <mxGeometry y="26" width="160" height="26" as="geometry" />
        </mxCell>
        <mxCell id="zkfFHV4jXpPFQw0GAbJ--2" value="LORA or ZIGBEE" style="text;align=left;verticalAlign=top;spacingLeft=4;spacingRight=4;overflow=hidden;rotatable=0;points=[[0,0.5],[1,0.5]];portConstraint=eastwest;rounded=0;shadow=0;html=0;" parent="zkfFHV4jXpPFQw0GAbJ--0" vertex="1">
          <mxGeometry y="52" width="160" height="26" as="geometry" />
        </mxCell>
        <mxCell id="zkfFHV4jXpPFQw0GAbJ--3" value="LCD" style="text;align=left;verticalAlign=top;spacingLeft=4;spacingRight=4;overflow=hidden;rotatable=0;points=[[0,0.5],[1,0.5]];portConstraint=eastwest;rounded=0;shadow=0;html=0;" parent="zkfFHV4jXpPFQw0GAbJ--0" vertex="1">
          <mxGeometry y="78" width="160" height="26" as="geometry" />
        </mxCell>
        <mxCell id="sLp0pAGS3h8WQUydBQSM-14" value="ESP32/ESP8266" style="text;align=left;verticalAlign=top;spacingLeft=4;spacingRight=4;overflow=hidden;rotatable=0;points=[[0,0.5],[1,0.5]];portConstraint=eastwest;rounded=0;shadow=0;html=0;" parent="zkfFHV4jXpPFQw0GAbJ--0" vertex="1">
          <mxGeometry y="104" width="160" height="26" as="geometry" />
        </mxCell>
        <mxCell id="zkfFHV4jXpPFQw0GAbJ--17" value="LORA" style="swimlane;fontStyle=0;align=center;verticalAlign=top;childLayout=stackLayout;horizontal=1;startSize=26;horizontalStack=0;resizeParent=1;resizeLast=0;collapsible=1;marginBottom=0;rounded=0;shadow=0;strokeWidth=1;" parent="WIyWlLk6GJQsqaUBKTNV-1" vertex="1">
          <mxGeometry x="595" y="20" width="160" height="120" as="geometry">
            <mxRectangle x="550" y="140" width="160" height="26" as="alternateBounds" />
          </mxGeometry>
        </mxCell>
        <mxCell id="zkfFHV4jXpPFQw0GAbJ--19" value="Put Data Control to Node" style="text;align=left;verticalAlign=top;spacingLeft=4;spacingRight=4;overflow=hidden;rotatable=0;points=[[0,0.5],[1,0.5]];portConstraint=eastwest;rounded=0;shadow=0;html=0;" parent="zkfFHV4jXpPFQw0GAbJ--17" vertex="1">
          <mxGeometry y="26" width="160" height="26" as="geometry" />
        </mxCell>
        <mxCell id="zkfFHV4jXpPFQw0GAbJ--20" value="Get data from Node" style="text;align=left;verticalAlign=top;spacingLeft=4;spacingRight=4;overflow=hidden;rotatable=0;points=[[0,0.5],[1,0.5]];portConstraint=eastwest;rounded=0;shadow=0;html=0;" parent="zkfFHV4jXpPFQw0GAbJ--17" vertex="1">
          <mxGeometry y="52" width="160" height="26" as="geometry" />
        </mxCell>
        <mxCell id="zkfFHV4jXpPFQw0GAbJ--21" value="Json" style="text;align=left;verticalAlign=top;spacingLeft=4;spacingRight=4;overflow=hidden;rotatable=0;points=[[0,0.5],[1,0.5]];portConstraint=eastwest;rounded=0;shadow=0;html=0;" parent="zkfFHV4jXpPFQw0GAbJ--17" vertex="1">
          <mxGeometry y="78" width="160" height="26" as="geometry" />
        </mxCell>
        <mxCell id="sLp0pAGS3h8WQUydBQSM-0" value="MASTER" style="whiteSpace=wrap;html=1;aspect=fixed;" parent="WIyWlLk6GJQsqaUBKTNV-1" vertex="1">
          <mxGeometry x="145" y="215" width="80" height="80" as="geometry" />
        </mxCell>
        <mxCell id="sLp0pAGS3h8WQUydBQSM-9" style="edgeStyle=orthogonalEdgeStyle;rounded=0;orthogonalLoop=1;jettySize=auto;html=1;exitX=0;exitY=0.5;exitDx=0;exitDy=0;" parent="WIyWlLk6GJQsqaUBKTNV-1" source="zkfFHV4jXpPFQw0GAbJ--2" target="sLp0pAGS3h8WQUydBQSM-0" edge="1">
          <mxGeometry relative="1" as="geometry" />
        </mxCell>
        <mxCell id="sLp0pAGS3h8WQUydBQSM-17" value="ESP32/ESP8266" style="swimlane;fontStyle=0;align=center;verticalAlign=top;childLayout=stackLayout;horizontal=1;startSize=26;horizontalStack=0;resizeParent=1;resizeLast=0;collapsible=1;marginBottom=0;rounded=0;shadow=0;strokeWidth=1;" parent="WIyWlLk6GJQsqaUBKTNV-1" vertex="1">
          <mxGeometry x="595" y="160" width="160" height="90" as="geometry">
            <mxRectangle x="550" y="140" width="160" height="26" as="alternateBounds" />
          </mxGeometry>
        </mxCell>
        <mxCell id="sLp0pAGS3h8WQUydBQSM-18" value="Put Data to MySql" style="text;align=left;verticalAlign=top;spacingLeft=4;spacingRight=4;overflow=hidden;rotatable=0;points=[[0,0.5],[1,0.5]];portConstraint=eastwest;rounded=0;shadow=0;html=0;" parent="sLp0pAGS3h8WQUydBQSM-17" vertex="1">
          <mxGeometry y="26" width="160" height="26" as="geometry" />
        </mxCell>
        <mxCell id="sLp0pAGS3h8WQUydBQSM-21" value="Json" style="text;align=left;verticalAlign=top;spacingLeft=4;spacingRight=4;overflow=hidden;rotatable=0;points=[[0,0.5],[1,0.5]];portConstraint=eastwest;rounded=0;shadow=0;html=0;" parent="sLp0pAGS3h8WQUydBQSM-17" vertex="1">
          <mxGeometry y="52" width="160" height="26" as="geometry" />
        </mxCell>
        <mxCell id="sLp0pAGS3h8WQUydBQSM-22" value="ETHERNET" style="swimlane;fontStyle=0;align=center;verticalAlign=top;childLayout=stackLayout;horizontal=1;startSize=26;horizontalStack=0;resizeParent=1;resizeLast=0;collapsible=1;marginBottom=0;rounded=0;shadow=0;strokeWidth=1;" parent="WIyWlLk6GJQsqaUBKTNV-1" vertex="1">
          <mxGeometry x="595" y="270" width="160" height="90" as="geometry">
            <mxRectangle x="550" y="140" width="160" height="26" as="alternateBounds" />
          </mxGeometry>
        </mxCell>
        <mxCell id="sLp0pAGS3h8WQUydBQSM-23" value="Put Data to MySql" style="text;align=left;verticalAlign=top;spacingLeft=4;spacingRight=4;overflow=hidden;rotatable=0;points=[[0,0.5],[1,0.5]];portConstraint=eastwest;rounded=0;shadow=0;html=0;" parent="sLp0pAGS3h8WQUydBQSM-22" vertex="1">
          <mxGeometry y="26" width="160" height="26" as="geometry" />
        </mxCell>
        <mxCell id="sLp0pAGS3h8WQUydBQSM-24" value="Json" style="text;align=left;verticalAlign=top;spacingLeft=4;spacingRight=4;overflow=hidden;rotatable=0;points=[[0,0.5],[1,0.5]];portConstraint=eastwest;rounded=0;shadow=0;html=0;" parent="sLp0pAGS3h8WQUydBQSM-22" vertex="1">
          <mxGeometry y="52" width="160" height="26" as="geometry" />
        </mxCell>
        <mxCell id="sLp0pAGS3h8WQUydBQSM-29" style="edgeStyle=orthogonalEdgeStyle;rounded=0;orthogonalLoop=1;jettySize=auto;html=1;exitX=1;exitY=0.5;exitDx=0;exitDy=0;entryX=0;entryY=0.5;entryDx=0;entryDy=0;" parent="WIyWlLk6GJQsqaUBKTNV-1" source="zkfFHV4jXpPFQw0GAbJ--2" target="zkfFHV4jXpPFQw0GAbJ--20" edge="1">
          <mxGeometry relative="1" as="geometry" />
        </mxCell>
        <mxCell id="sLp0pAGS3h8WQUydBQSM-31" style="edgeStyle=orthogonalEdgeStyle;rounded=0;orthogonalLoop=1;jettySize=auto;html=1;exitX=1;exitY=0.5;exitDx=0;exitDy=0;entryX=0.006;entryY=0.042;entryDx=0;entryDy=0;entryPerimeter=0;" parent="WIyWlLk6GJQsqaUBKTNV-1" source="zkfFHV4jXpPFQw0GAbJ--2" target="sLp0pAGS3h8WQUydBQSM-18" edge="1">
          <mxGeometry relative="1" as="geometry" />
        </mxCell>
        <mxCell id="sLp0pAGS3h8WQUydBQSM-32" style="edgeStyle=orthogonalEdgeStyle;rounded=0;orthogonalLoop=1;jettySize=auto;html=1;exitX=1;exitY=0.5;exitDx=0;exitDy=0;" parent="WIyWlLk6GJQsqaUBKTNV-1" source="zkfFHV4jXpPFQw0GAbJ--2" target="sLp0pAGS3h8WQUydBQSM-23" edge="1">
          <mxGeometry relative="1" as="geometry" />
        </mxCell>
        <mxCell id="sLp0pAGS3h8WQUydBQSM-33" style="edgeStyle=orthogonalEdgeStyle;rounded=0;orthogonalLoop=1;jettySize=auto;html=1;exitX=1;exitY=0.5;exitDx=0;exitDy=0;" parent="WIyWlLk6GJQsqaUBKTNV-1" source="zkfFHV4jXpPFQw0GAbJ--2" target="sLp0pAGS3h8WQUydBQSM-27" edge="1">
          <mxGeometry relative="1" as="geometry" />
        </mxCell>
        <mxCell id="sLp0pAGS3h8WQUydBQSM-34" value="RS485" style="swimlane;fontStyle=0;align=center;verticalAlign=top;childLayout=stackLayout;horizontal=1;startSize=26;horizontalStack=0;resizeParent=1;resizeLast=0;collapsible=1;marginBottom=0;rounded=0;shadow=0;strokeWidth=1;" parent="WIyWlLk6GJQsqaUBKTNV-1" vertex="1">
          <mxGeometry x="595" y="680" width="160" height="120" as="geometry">
            <mxRectangle x="550" y="140" width="160" height="26" as="alternateBounds" />
          </mxGeometry>
        </mxCell>
        <mxCell id="sLp0pAGS3h8WQUydBQSM-35" value="Read Sensor" style="text;align=left;verticalAlign=top;spacingLeft=4;spacingRight=4;overflow=hidden;rotatable=0;points=[[0,0.5],[1,0.5]];portConstraint=eastwest;rounded=0;shadow=0;html=0;" parent="sLp0pAGS3h8WQUydBQSM-34" vertex="1">
          <mxGeometry y="26" width="160" height="26" as="geometry" />
        </mxCell>
        <mxCell id="sLp0pAGS3h8WQUydBQSM-38" value="STM32" style="swimlane;fontStyle=2;align=center;verticalAlign=top;childLayout=stackLayout;horizontal=1;startSize=26;horizontalStack=0;resizeParent=1;resizeLast=0;collapsible=1;marginBottom=0;rounded=0;shadow=0;strokeWidth=1;" parent="WIyWlLk6GJQsqaUBKTNV-1" vertex="1">
          <mxGeometry x="265" y="630" width="160" height="80" as="geometry">
            <mxRectangle x="230" y="140" width="160" height="26" as="alternateBounds" />
          </mxGeometry>
        </mxCell>
        <mxCell id="sLp0pAGS3h8WQUydBQSM-40" value="LORA or ZIGBEE" style="text;align=left;verticalAlign=top;spacingLeft=4;spacingRight=4;overflow=hidden;rotatable=0;points=[[0,0.5],[1,0.5]];portConstraint=eastwest;rounded=0;shadow=0;html=0;" parent="sLp0pAGS3h8WQUydBQSM-38" vertex="1">
          <mxGeometry y="26" width="160" height="26" as="geometry" />
        </mxCell>
        <mxCell id="sLp0pAGS3h8WQUydBQSM-59" value="RS485" style="text;align=left;verticalAlign=top;spacingLeft=4;spacingRight=4;overflow=hidden;rotatable=0;points=[[0,0.5],[1,0.5]];portConstraint=eastwest;rounded=0;shadow=0;html=0;" parent="sLp0pAGS3h8WQUydBQSM-38" vertex="1">
          <mxGeometry y="52" width="160" height="26" as="geometry" />
        </mxCell>
        <mxCell id="sLp0pAGS3h8WQUydBQSM-43" value="LORA" style="swimlane;fontStyle=0;align=center;verticalAlign=top;childLayout=stackLayout;horizontal=1;startSize=26;horizontalStack=0;resizeParent=1;resizeLast=0;collapsible=1;marginBottom=0;rounded=0;shadow=0;strokeWidth=1;" parent="WIyWlLk6GJQsqaUBKTNV-1" vertex="1">
          <mxGeometry x="595" y="530" width="160" height="120" as="geometry">
            <mxRectangle x="550" y="140" width="160" height="26" as="alternateBounds" />
          </mxGeometry>
        </mxCell>
        <mxCell id="sLp0pAGS3h8WQUydBQSM-44" value="Put Data Control to Node" style="text;align=left;verticalAlign=top;spacingLeft=4;spacingRight=4;overflow=hidden;rotatable=0;points=[[0,0.5],[1,0.5]];portConstraint=eastwest;rounded=0;shadow=0;html=0;" parent="sLp0pAGS3h8WQUydBQSM-43" vertex="1">
          <mxGeometry y="26" width="160" height="26" as="geometry" />
        </mxCell>
        <mxCell id="sLp0pAGS3h8WQUydBQSM-45" value="Get data from Node" style="text;align=left;verticalAlign=top;spacingLeft=4;spacingRight=4;overflow=hidden;rotatable=0;points=[[0,0.5],[1,0.5]];portConstraint=eastwest;rounded=0;shadow=0;html=0;" parent="sLp0pAGS3h8WQUydBQSM-43" vertex="1">
          <mxGeometry y="52" width="160" height="26" as="geometry" />
        </mxCell>
        <mxCell id="sLp0pAGS3h8WQUydBQSM-46" value="Json" style="text;align=left;verticalAlign=top;spacingLeft=4;spacingRight=4;overflow=hidden;rotatable=0;points=[[0,0.5],[1,0.5]];portConstraint=eastwest;rounded=0;shadow=0;html=0;" parent="sLp0pAGS3h8WQUydBQSM-43" vertex="1">
          <mxGeometry y="78" width="160" height="26" as="geometry" />
        </mxCell>
        <mxCell id="sLp0pAGS3h8WQUydBQSM-47" value="Node" style="whiteSpace=wrap;html=1;aspect=fixed;" parent="WIyWlLk6GJQsqaUBKTNV-1" vertex="1">
          <mxGeometry x="125" y="629" width="80" height="80" as="geometry" />
        </mxCell>
        <mxCell id="sLp0pAGS3h8WQUydBQSM-48" style="edgeStyle=orthogonalEdgeStyle;rounded=0;orthogonalLoop=1;jettySize=auto;html=1;exitX=0;exitY=0.5;exitDx=0;exitDy=0;" parent="WIyWlLk6GJQsqaUBKTNV-1" source="sLp0pAGS3h8WQUydBQSM-40" target="sLp0pAGS3h8WQUydBQSM-47" edge="1">
          <mxGeometry relative="1" as="geometry" />
        </mxCell>
        <mxCell id="sLp0pAGS3h8WQUydBQSM-55" style="edgeStyle=orthogonalEdgeStyle;rounded=0;orthogonalLoop=1;jettySize=auto;html=1;exitX=1;exitY=0.5;exitDx=0;exitDy=0;entryX=0;entryY=0.5;entryDx=0;entryDy=0;" parent="WIyWlLk6GJQsqaUBKTNV-1" source="sLp0pAGS3h8WQUydBQSM-40" target="sLp0pAGS3h8WQUydBQSM-45" edge="1">
          <mxGeometry relative="1" as="geometry" />
        </mxCell>
        <mxCell id="sLp0pAGS3h8WQUydBQSM-61" value="BUTTON" style="swimlane;fontStyle=0;align=center;verticalAlign=top;childLayout=stackLayout;horizontal=1;startSize=26;horizontalStack=0;resizeParent=1;resizeLast=0;collapsible=1;marginBottom=0;rounded=0;shadow=0;strokeWidth=1;" parent="WIyWlLk6GJQsqaUBKTNV-1" vertex="1">
          <mxGeometry x="595" y="820" width="160" height="120" as="geometry">
            <mxRectangle x="550" y="140" width="160" height="26" as="alternateBounds" />
          </mxGeometry>
        </mxCell>
        <mxCell id="sLp0pAGS3h8WQUydBQSM-62" value="Config Address RS485" style="text;align=left;verticalAlign=top;spacingLeft=4;spacingRight=4;overflow=hidden;rotatable=0;points=[[0,0.5],[1,0.5]];portConstraint=eastwest;rounded=0;shadow=0;html=0;" parent="sLp0pAGS3h8WQUydBQSM-61" vertex="1">
          <mxGeometry y="26" width="160" height="26" as="geometry" />
        </mxCell>
        <mxCell id="sLp0pAGS3h8WQUydBQSM-63" style="edgeStyle=orthogonalEdgeStyle;rounded=0;orthogonalLoop=1;jettySize=auto;html=1;exitX=1;exitY=0.5;exitDx=0;exitDy=0;entryX=0;entryY=0.5;entryDx=0;entryDy=0;" parent="WIyWlLk6GJQsqaUBKTNV-1" source="sLp0pAGS3h8WQUydBQSM-40" target="sLp0pAGS3h8WQUydBQSM-34" edge="1">
          <mxGeometry relative="1" as="geometry" />
        </mxCell>
        <mxCell id="sLp0pAGS3h8WQUydBQSM-64" style="edgeStyle=orthogonalEdgeStyle;rounded=0;orthogonalLoop=1;jettySize=auto;html=1;exitX=1;exitY=0.5;exitDx=0;exitDy=0;entryX=0;entryY=0.5;entryDx=0;entryDy=0;" parent="WIyWlLk6GJQsqaUBKTNV-1" source="sLp0pAGS3h8WQUydBQSM-40" target="sLp0pAGS3h8WQUydBQSM-61" edge="1">
          <mxGeometry relative="1" as="geometry" />
        </mxCell>
        <mxCell id="sLp0pAGS3h8WQUydBQSM-84" style="edgeStyle=orthogonalEdgeStyle;rounded=0;orthogonalLoop=1;jettySize=auto;html=1;exitX=1;exitY=0.5;exitDx=0;exitDy=0;entryX=0;entryY=0.5;entryDx=0;entryDy=0;" parent="WIyWlLk6GJQsqaUBKTNV-1" source="sLp0pAGS3h8WQUydBQSM-81" target="sLp0pAGS3h8WQUydBQSM-83" edge="1">
          <mxGeometry relative="1" as="geometry" />
        </mxCell>
        <mxCell id="sLp0pAGS3h8WQUydBQSM-85" style="edgeStyle=orthogonalEdgeStyle;rounded=0;orthogonalLoop=1;jettySize=auto;html=1;exitX=1;exitY=0.5;exitDx=0;exitDy=0;entryX=0;entryY=0.5;entryDx=0;entryDy=0;" parent="WIyWlLk6GJQsqaUBKTNV-1" source="sLp0pAGS3h8WQUydBQSM-81" target="sLp0pAGS3h8WQUydBQSM-82" edge="1">
          <mxGeometry relative="1" as="geometry" />
        </mxCell>
        <mxCell id="sLp0pAGS3h8WQUydBQSM-81" value="Application" style="whiteSpace=wrap;html=1;aspect=fixed;" parent="WIyWlLk6GJQsqaUBKTNV-1" vertex="1">
          <mxGeometry x="120" y="870" width="80" height="80" as="geometry" />
        </mxCell>
        <mxCell id="sLp0pAGS3h8WQUydBQSM-82" value="Winform" style="rounded=0;whiteSpace=wrap;html=1;" parent="WIyWlLk6GJQsqaUBKTNV-1" vertex="1">
          <mxGeometry x="330" y="800" width="120" height="60" as="geometry" />
        </mxCell>
        <mxCell id="sLp0pAGS3h8WQUydBQSM-83" value="Web(NodeRed)" style="rounded=0;whiteSpace=wrap;html=1;" parent="WIyWlLk6GJQsqaUBKTNV-1" vertex="1">
          <mxGeometry x="330" y="900" width="120" height="60" as="geometry" />
        </mxCell>
        <mxCell id="sLp0pAGS3h8WQUydBQSM-86" value="" style="shape=image;verticalLabelPosition=bottom;labelBackgroundColor=default;verticalAlign=top;aspect=fixed;imageAspect=0;image=data:image/png,iVBORw0KGgoAAAANSUhEUgAAAlYAAAHcCAYAAAAUZuQ8AAAAAXNSR0IArs4c6QAAAARnQU1BAACxjwv8YQUAAAAJcEhZcwAADsMAAA7DAcdvqGQAAGIkSURBVHhe7d09euK814Dxk3ctkCJPVkBWAGlSpZ2OlKGZLmW6NKQM3bSp0gRWEFbAf4qBvfDqyBLYRrZlMF/J/bsuDxmwZVk29kGS5YulIZH+97//yX///ef+9/Ow/Ww/28/2/1RsP9vP9sdt//+5VwAAAOyIwAoAAKAhBFYAAAANIbACAABoCIEVAABAQwisAAAAGkJgBQAA0BACKwAAgIYQWAEAADSEwAoAAKAhBFYAAAANIbACAABoSPRDmC8uLtxfAAAAP0tkuCQXs9ksas7r62v3FwAAwM9i4iX3V7naNVaxERsAAMC5qxv/0McKAACgIQRWAAAADSGwAgAAaAiBFQBUmDxc2H4WN68L9w4AhBFYAdjCRF5vkmDDBhwPE/f+99R9G0vfvE4Hv4TYCkAZAisAW2jL5dNc5sulzIcdmY6ev3nA0ZW3sQ2tZPDyvYNIALshsAJOzmJVG3S6TU8t6XZb5l/z16WOcTeVv3P7wffVfbNBpPggcvEqN67GrskKu8XrTVITaBKlcgw4PwRWwKmZvMhgal47Q/nzqKHLqZrIgwYAvZF0+mN567q3z5rbpoubYA1c6/FLlssveWyZ+doDE052pK+xVi88f20mWPtld35fxqZAT3nvAwhjgFDgpOiFvScjvbAu3+S0Y5Ukr7PhXL5OOgAst5g8yMuH+4/MZDaamoDJxLX9vmhd3N1vsx9ym6ed2XujjgznLsjSfWYC4fnX4w7BkNZUtk1Q7dN1bwM4qtrxjwZWMXTWGrMD2MK4r9+zznI4d2/UMB92ku9pf+ze2bfxsm/W19kmsyckKfPiaaM4x337fma7zXud/Hs1zUPpAjg6fy6IRY0V8E1o35y2NiP1x7JspF3unGrPmuK3mVojAIm68Q99rADshR/76ZuPxAAAGQRWwJGs7v66eS28+yt9h1gRP4+trVKjXrKMndKdqrU2Jv9eWtXn3kImrw9ykxrHSpe5uXmQSelyPn0zn/53Yf6fTsMsX7Ze7QuVXWduKinHDWbdrw+ubO10YwLA2KULtv/htWL7AxahtC5KynK3MgRwANoUGENnrTE7gCrzoe2XU9ynar4cdpLvXVm/G+2b0+l0XFpufv2/nfrL8WrRpE9U8fpyn/v8dYYmJ56Zx+XJTm49q/+bqW9XuM77uo+ST7+/HPr+YGbaXN7NnrLuB2XW1+8v+/3A9vbT+SyxKvf1sv5vMWmX75PY7Y+Qy8dmWqE8bF+GALbjv1exCKyAo6kInCoDr6zqzuu5wGlD+vP5OphZpbfOr2QCNqXz+4u7WX7s827mc3Os0/dppAOh1Poy7xuuU3c2LRUK3qqktyG3/lSgEi6jGtu/sWyA7l8TEG0GYqn1bGzYlmUIYGv++xaLwAo4olUwFLgQln0W0lxglZo0gHCfrgOcouVTAYGbL5uVVPrmg40kCgJJv12h4LPss6DCIC2xKsPQNtbZ/vhIL8yva2Pfb1eGALaXfO/j4x/6WAFH1Lq9F3MhFJm+y2emb8xCPt+TPlP9p13GRtpGR/rDsYznc1l+re8GnHyMkj/6TwV3y7Xk9t5ujUliKPPlV8GgoR0Z/g4Mftm6tONG7dPi3yz5o38XvMux9fhknwkYUmv7Z//i+3uFtK/ccfFXwgPaH68MAZQjsAKOqXUrybV4Ku/pyGrxKUlc1Ze7I4xzcHXblW4rfdleiI9JOlft5I+A5PE2RmFAUJ9Pc/r+mQtWJvLiOuxfXwYjnQ3zv8n8ZdsQtt/tXywmthP7w4ObXt7tIKUAzg+BFXBULXl8SupI0oHD4tNdWAtqVk6Wr2lpUve3DDXR6UDa9u47DT7Mqx1vyugM5fepFFLN7bd3Ol5cSLvdk95gJKORnwirgHNFYAUcW/cuaX5aNQemmgGPUV21i/nf5mta3LMTO/2h9DtTmbrAY9pJmix3e4xMw+psvwmq2r2Rnb+j25H0eU2m+bD5ABXAQRBYAUfXlbskskqaA4/cDBjWknUrV3Ej16oPU+dK6ja2hS3k9VnrpTpy//tR3r5SwcfXl7w9bveg4rJtCGt++32frY591iIPXAa+CwIr4AR0k8jKNgdOdm0GLOw43ZYr158rFBssXp+TprUCPo8y+kgGp9ywrmnr3N82HCiYPGd792+lahvKyqDZ7V/32QLwvRBYAadg1Rw4kJ7rkF23GbC64/S61mXUS4/sraN/u+cMlvF5NKFH7yY/yrhJ46Ftm+y0pu2psYfspfI8aK9HGDfTzY2O9n4jD68Ts/ZI6W14SC+n+a8og0a3P1sDlk3qVW7agyS4BnB+lpF01hqzA6hpPbq4TuFxlsplx6FKRuPOjWeUG+07PWK3jlyejMNUMgZSbvlktPDU/0vHT4odRyv/uXnfr8OuL79OnWqU12o8qmSqVQY7bX9OOi2TTl9HlPd5WeUpv13bliGAbfnvdyxqrIAT0f2d6rC8VTNgV97mYzFBiDWdTs319V4yIxG0HuXLzpPMlMzTl+F4Ll9vt/a9Unb5uYzNSmwKZnlNwiRiktEO2F8FYzxtzzbPaTaHOq7Wl3zZyXfyHid3DLoaqCjdN9s5PFtOkWXQ5Pan94VJxN4NaLOiHfKLx9MCcNouNLpyf5fSqncVOTuA2vQBuzqEQEeG8+YDlPPky6Qv4+VbONicPMhFb6SR12ndIQjgW6gb/1BjBZyKyYcJIIzOvdwSHSRWZVJ8l93qTrzrS4IqAEdHYAWcBD+sgMZVTd9Rd8ZWj3bJP/LHWaxHXz+7Mb8AfEs0BQKnYHUnGM2AeZOHC9GWPqvTkf61u51ulvRJUtov6Sv8YEIA2End+IfACjgBCz/cAf2EghaTV3l5fjeBlIukrI6Js67l6c/v3HMNAaA5BFYAAAANqRv/0McKAACgIRez2SwqBLt2/RrM/PYVAADgu6sb/9AUCET63//+J//995/7H/CzcPzjp6IpEAAA4EgIrAAAABpCYAUAANAQAisAAICGEFgBAAA0hMAKAACgIQRWAAAADSGwAgAAaAiBVW0LmTzcyM3FhR00TKebmwd5nSxWn7/erD+rmm5e/XKT1HI38rBKr4zmJZRWysKkm8vvRSa/OXXnx44m8pAu68D0MHGzrlQdg15R2mbZh1cJ71KT9uuDSS9y/i2PF32o8sPNTWodyTYULVZ3/monVu4/9nvqy8rsS/dOpdC2a9na46Fo+4v3d+xxpA9K98tsHhsnYPGaK5PwtM57TNkvgt+9C/P/5FjOF1x5OYePz+Jl/JQt77rzHx4jr9eiO7QnI/2z05G+HeZ+JqNR8sT9/ngpb109+f6S58zI91PxD+XvmOXSrp/+mGX0yfyptK2+jJdv0nX/C5o8yEVvvURnOJevx9RT/s0X4qY3MGvX9fYlye5IXHZL5zef6iaafLuZjWT73H9+oP2MPO33uynv/rUkD07IuvttjoPVboo5Bu2fRjjtmTkG/G7Nzq8/CtoysJ+ZtM0yajYy89u/csfklseLBic9l9/Vcem2YeOYNOrOH+eEyv1Mvqf7Pf4jzneGBjft5AC1/Pk0vf2d/lj+mALIHUU1vwt56e+GYdax3Ech78Rs482zOSrDfBmtt7Oi7DVQa/vjTCXHmklpVWYq5thPH8+b5VywTEr4uxg7/+5qxz8aWMXQWWvM/i3Nh52kHMyRkTEfL4edzjL/9sp8uDTH49KcIZdz99am8bJvy7i/7PeTsi5Mzxnb+cx6+0m+zAnYfeKM+8tOf7gc595ebUc+P8H552bbkvxo3iqy9K3pczWbt97vMWVb7xgsTnuVTvozs/+Dx4WRHGu5Y2yL4yV97OWPy5C688c7rXI/h+/psY//ddlpeW8eDHMtF/t54FxYsp7gPsnz5/C+OT9XzXuK/Hc7k++Ssvfba6bQsWnpsW+uPcPMwiXl7POwcX6JPwYSdeffXVJ28fEPgVW09YmrKuDZUDOwGvsDsGxFqTTH7sSweTIpsPrSRB6Yq/nNlyhyFd/R8QOrusdgWdqbafkLTPA4ijkmvcLjxecn9jiqO38dp1PuhU7se3rc49/PV1FuwQBCla3Hf1Zcbv67oev2PzLijoVTUFR2RWWynj/6mrISU8519k1I3fl3lxxT8fEPfayiteTS1TnO/u25H0P3t5iTr8joWULdptTi891W0fafHqWdvFVf52r7ZXEE+z0GWy7x6d+5fU1b/EsaGDpXOxwxkw+xTWn9J4lqvas7/94c8LsfwvdUFq/PybHQGcrvshY4f+40c39E97Npy5VdpshCPt/t2VbuzLq7d+ayboyeX80n9dTqK+j6TNm+s+bvB9/v8eZV6nQhWpVdfxzXROy/d6as/xz3i3e2CKxq8F+o6eCXxHUu31ZLbu/1mz6V98/QeibyYhv7ky96PQt5/eX6c9zf5vohFJj/de3s13LJ9+yomjsG5/LX7tSOrGKl7p05ooxRz5zMJ6uLxmLykPRriT3RFhwvdYOzRoK5huy13IP4nqbNk0KLKAt/7jSHcWxktfgUGzcVldvkJelb1b9L+iH54G36LsHTcwHbP6w3kNF0Kp1+X/o6mXSm05H02iUdrv++2L5O2kfJ9nGa/k3ej2ECsl/uWjGO7BM2+bBhVfxxF2kd4Lly/M5czVUlnbXG7N/W2PVnSqakrb+ystRX0cc2Bep/y5oBXHW3r6YtbcIxSw+1X4CdfN5NvmtU8Qb71/xA+20K6SzNydbtp/WU7b+QiD8Gi6vMV/1K8sfk3Czjmqpsnjru2OqXHbtZRcfLqgnFvK/bkBzfbrL9lHabv54TK3cz56l/T4/XFFivKXZVxpmZC9aTOt6Lyi0p12wzYfk5NyDdRJlbZNX3aCNv/hpgptJrR5GqcguVSd1m7zyfZu575cs4eB4pWMZNm9/FuvPvLtk/8fEPgdUW5uNh6uKT7ODSk/w2gZW+4y8smQPFH/jrL3rplzz95UxNhR0S8wr7LPw8+72whKeiE3fcMRg+Aa2Ph4I+JZngKpmvOIjIKTle/PHsp1WeXPBm30tlqO789ZxYuZ/B9/RcAqtVWQQDq9BUdv52y238AIk5p6+Fz+Vrwc9Xx8R2+zQcYKaFyn597OaP0VV6uSmbfFk562TKeuPgL19m87tYd/7d+bRjEVjtYJ67ABXu0C0Dq9UJIr2cTyt1NNf59ZTNc8UXVue180We0L6543beDSs/Btf7LzNpbY/5WRc6WlYnz47+8jPBVDqQMO/tcrz4i0fwOA0EBnXnr+e0yj3vFL+n36PGKhXspo7rwlOnO842j8E6edr8MZwXPIcHzvXRooKyUNmX5FXPBekfCsHtL96f6bs2Y5cJqzv/7jTPOsUisGrAOpIv2NHbBlaBgzz0y6ZOYJVYnxSKl/H5qZPu93aKgZUXPgbrpZ2+IGX3uDbFJcdC8TFcfbwEf5WvxB3ra9UXq3KnU+7FTut7eszjvzTIzgnPG15PYTOcs0rLBF/poMJObt9UBz7V25j+7q1sHVitj5vyRUP5ijnmEuHvZ8W2+vLOnEfijoG1uvPvzubZTLHovN6A1uNT0ulXZtLsTUPrTuyDl4ntiPisvf+q7oyptO7gGboDTDvHP9zoAGy6qm0HYMQh7X4M+hsiOjI0B1d2j7ek+zZO0g922K13vNS9s+4od+JF2t93X/E99drutr1wOaQtxN3zINcRPfhbqbsIn/O3YPvzraEdzEej3GQ7vBujD7Mnyvi7DquPkSZu1Fi8/nKd7SPvAsxIHXPvn7XveqzUvjJnGGP6V6r25DkjsDpxrdv75EA0X95XN8RCE3dr+LtsNrmTtfmYoOonKrqjrOiW9PjjZXVnXfDi6O+WW6+/7vzfEd/TxPo8WDwEjVoFFdE/Plvy+OSOs1wg4Ye00fJdJq07uWkeObSDH65jKuG40A/nEBcMltriLsC81Y+F6UB+lRU2ChFYxTIHbPhZR/oIm+RXo4l45Lbp81vrUZLv/UgG7gvzFHUS1UcwFDxzMPVLrJ8Zr4Gg6qTt9Rj0gVPgl7vyt5xnApmax8tqOIfNi2PwVuy689tjfg/PCttrufM9jbI6D05l0L4J74vU4250fL/oUlkNnzAQbRhI+GCnI/eFOzZ+aAf/I2HU2xyzauG/Wzu3RKyH6OiP33YY0qArb+Mkv9NBW27Ml2nzEYwL+ef+imf20Yt7RM53H3LBRN5RdNYas38/q86Abup0VreiJ1NJX4+t+1g5q34AZgo0mhf1sfJt4PazfL8A+142rcz8bvs2ptrt/d/HfvuYaNmm+m+kptVurX0M1uyLkD7OTFp+/b6Tqn0vldA2x8u6T9L6mFylH+gcX2/+2L4l6nTK/Vy+p/s9/s1UsB3rol3v3+z2p98L3XWmyvfJRh+nqHO2Wh9HwdWmlO/nwPI+D7H7Mv39zZdjelqNR1BRJia9zHGv3xVdPvNeUR8rM5/fRjetltv43hYv46fw9yt2/t35bY1FYFXHPHk20sbBlvnyB+waWKUOpNABUxRYmU9MlvWurvRFQE9G5sAL3F6c/uIXTpUnmu9r7xeWgimzX2sdg2XHVIHC9Ddv+9/2eLEn7I2LYfF3KH7+Ott7SuV+Ht/Toxz/weNns6xsIFE6NEXVPvGfJ+fY4nPqJr8/YuYNHcuF+d4lsCqbVunFHKfz5XiYz7OZTHn3h6F8l+xPu0zZ96V4ypZt3fl359ONdaH/mAUqafW6ipwd+Hb283R/NMWObD2Ymmsxzdj7wPGPn6pu/EMfKwDfgOsTw/PNABwZgRWA82c7AHdk+KdGp2UA2AMCKwDnr/smy+WXUFkF4NgIrAAAABpCYAUAANCQC72F1v1d6vraDh0rZn77CgAA8N3VjX8YbqGGn367MdvP9rP9bP9Pxfb/3O1nuAUAAIAjIbACAABoCIEVAABAQwisAAAAGkJgBQAA0BACKwAAgIYQWAEAADSEwAoAAKAhBFYAAAANIbACAABoCIEVAABAQwisAAAAGkJgBQAA0BACKwAAgIYQWAEAADSEwAoAAKAhBFYAAAANuZjNZkv3d6nr62v7aua3rwAAAN9d3fjnYmm4v0tdXFzY18jZAQAAzl7d+IemQAAAgIYQWAEAADSEwAoAAKAhBFYAfrCFTB4e5HXi/qsWE3l4eJX0WwAQi8AKwO4Wr3JzcSEXNw9nFpDM5WM0ksHHOteLz2cZjf66/wFAPdwVCGA3GlS1BzLtDGX+9Sgt9/a5mDxcSG8k0un35VpmJqiaivTHsnzrujkA/GR14x8CKwDbc0GVBiJ/TCBybkFVYiGvD79koAGV0ekPzbacX4AIYD8IrACckIk8XPRkJH0ZL9+EOiAA56Zu/EMfK+A7WEzk9eEm6efkpxvzf+2EvXDzWBro6OdlfaGK5olZViuxbuz6b14zK94UnecQs+yNX6Y4P7F58fPp9FC2cY2ud2GK4FUezDb7dSfp+jKoLAQAJ4jACjhz9iLe7tmmLG3M6nQ6dpKp+f9oIL12eSC0V4t/EnoIRBN5/pu03JllRtIrj4YqLOTz3ScmMkp1ZA9pZL22s39b2r2BjMw2mxJwZWD+XJVBuyLIA3CKCKyAczZ5kPYgudL3x3NbVf319WUn/Xs+H0u/c2U/P4bF57sNnKR/t24GbDLPGozo6+hZqirICi0+xcZV/b709f+jj+pAdJf1+s7+5k/tzzWeL812J9v/9aV/m8mUwbDfkePtOQDbIrACztZEHvR2NqM/Xspbd7O7davVlbevx6P0bZoO2kkA1enLeHWHXdN5vpenoa3mkcGvV9kmtvLBX//uTe6SyEoqKq2Mbddrtt8HVcO5fL2Z7Qz1kjdl8Pj2JY90SgPODoEVcK4mHyYEMDpD+X2CF+DOcCxzrX35ekvVVjWc5+lfkcc/ksQ4A3mp3XTmmwH7cmfy000iKxk9VwRL2643tf1/HrnvEPiOCKyAMzX5SGp+Ove3Jzo0QHsjX/vJc0senyIDorzJi9hWSd9U2f3tgqV3+axMqP56T3+fAdgVgRVwlhbyz/UKv77c5hI9kp7efRacdHiEfdg1zyVWAdFAftXo9JQEOh0ZrqrPWnJ7nzTxvVdHVjXXu8ftB3AyCKyAn0rvPgtO7vOz0pLHP0PboXw6eKnufG5NJImr7uU2Fee0bu+TdN4/I2qh6qx37u4o7MhV276xkh7uIT1xVyBwfgisgB9JB+x0d6BtTOPk7rhz03qUpGUuchgE199po1mudStJpVVk36no9bblStMNaF3eS1/vSnSTHXYBwFkisALOUksur5O/Zv/im76Oa/957r65oDBiGATf30neX+Th4SE1vYh/BHPVmFZenfWaiG2zmbH7KG9vb6vpyZUTgPNDYAWcqbar/ohrsmrSTMriorkbQTPUj2j/ee7K76TTkwzKqpsWr/Ls4qrpdCSjUW7yzaExY1pZMev1/beOsc8AHAqBFXCmfF+g6CarnXXdOE9lHbtdv6VAPyJ1iDy3Hp9WtUefEq768WNX6VhS4ebQedIpXWLGtErErHc1T81O9gDOB4EVcK5WfXvMtbx3Iw+hB+wtJvKgz7Rr6Brux3maDn5trk+f/efvKOw/SXCYpoPkuStvY13JVAYDVy2V4ceu6sh9utd6xrp2KbY5sHq9ys+jZdiWm4eJbD4ScCH/3F8Azg+BFXDGum9zGfc1AJiaQKVt7yTzwybYO8vaJtCZzpq7UHffZO6avLLrS9Zlx4TKjLS+6SB59sMghPhH2OTuBsxL10BFVy6VrdfTMjTBlS2BUU/abb0D0A11odt/0ZbCuAzAySOwAs5ay1ynv8yFeih9dyuZHzbBPs/OPovuK1x7tKXWY2h95g/zf3323zw90nrQIfK8HgZBXV+6P4xVM2DlIJ0xTZ95xetNa5ng6mtpAsyhvwPQDXWhf2o5DpNnCJbEpwBO1MVSOxRE0F+SKnJ2AACAs1c3/qHGCgAAoCEEVgAAAA0hsAIAAGgIgRUAAEBDCKwAAAAacjGbzaK6uV9fJyMJc1MgAAD4KdxNgWLipeSPClsMt2BfAAAAvj0fWDHcAgAAwIERWAEAADSEwAoAAKAhBFYAAAANIbACAABoCIEVAABAQwisAAAAGkJgBQAA0BACKwBrN2bSwfB0mugbER7M5Jd51TdK6Od10k+nrZPmL71cOr9VUzpvoc/TUz5voXl00vUvzAQADiOvA1hLvuZrVd93DUB6yZ/W0EyPyZ9BGohMkz+lb6a35M8gn5eOmZInaomM3OvYTF0zaeCVf8qET1+XS3syky6jfNqah5DfZmolf1qh+XW9fl0+PwC+nbojrxNYAVhLBxAaxFQFDBrY6Hx+/rLASmt22mby86qi84nWLg3MpPOmgy9N45eZ0kFSml+HBlVf+kYBv52x57Oi+X0+FedG4FvikTYAdnfnXj/ca4gGMRogaRBzpW9U+HSvmrav+SlqDnx3rz4fntYiacB0KrVD6SCSJkEABoEVgE0auGjApIFTUcDgAyWtPYrhgyVN2wdMz+41zzf9/XOvpyzf5AjgRyOwAhB27159AJXnm8Biao+0Zkr7I/maKh+46XuhwM0HXrqOolqtU6B59/2s0n2yAPxYBFYAwm7dqw+g0nywo32qYvgmRe0U7pUFbhp4+SBMO8drH4d9BFjaRyw/xa5Hgyrt76ViywHAt0dgBSBMa2CK+kL5JjwffFXxfbHStTp+Wd9EmKed1rXzvG9q20eApfnKT2XNj7p+P2knea2t0jyW3QkJ4EchsAJQLNQXyjd/adAV0/zlAyFfQ+Xpsr45sChY0por7aw+N1M6wKoaLyuW3uSTn8qCJN1mnXxe9FUDLABwCKwAFAv1hXpxr/k79or4ZkCtmco3u3lldx8qDcI0wPJNbqHmyUPQWjSdNC9aU6XlQmAFIIXACkA5X9OkAZUGV9pcpsFWTKd1P7/SICTd5KaTvqf8PFVOaXgDH3SqpmrQAJw9AisA5XxfKA1+fEfzfLNeET+/1jSFmt108sFJk32nDsUPNVHUTwzAj0NgBaBcuhO7b4KL7aztA46yTu4+SPPNgVoTlX8moOebDzUYi+nftW/pptJzDAwBNI7ACkC1dH8qH2RV0QBJA46qIMgHaVoj5pv3dDl/F6AGWf5hy77J8I973VW+z5ef6jQz5gNDAD8agRWAaun+VOmxqMrUaTb0wZouo0GY3gXo39Mgy/fF0ve0+bCp2ioN1EJTaGytIqHAEMCPxUOYAQAACvAQZgAAgCMhsAIAAGgIgRUAAEBDCKwAAAAaQmAFAADQkIvZbBbVzf36+tq+clcgAAD4KfxdgSZeSv6osMVwC0RWAADgZ6gb/9AUCAAA0BACKwAAgIYQWAEAADSEwAoAAKAhZxRYTeTh4kJuXquecho733exkNebn7S9KJccDxcPE/d/AMAhHSWwmjyYE78Jfo528p88JOu/uJGNeGTxKjeFgVkStCXLrqfgZqzWkZ8eTCqbFq83gXl1CuQxbfIig2lH7m/Dj/uvKutkvQXryJRFeNuzU37bapTXNlJlXJqm2w6drygArTwmax4z8eW6KS4vRcdFSx6f+iKj5/LjBgCwF0cIrCbyMRLpdDrm5P8RDDL2bfHPj0UxlcFLXA6SC2VPZsO5veVyNY37MuoVXwT749S8Zhr3R9IrvKh2ZDjPzr9cfsljOGayJlqY/aeCeZos6668pfNltltlt+/NzJXYtry2NXp+laI4YvIyMHu6THU5bXPMbKeBfda9k77J5/snkRUAHNrhA6vJh4zMaf/pz70JI0bysc9rVKmO9Pt68Yr4Zb94lV+DqXRMkPCVj2C6b0mQMepF1cR035YyH3ZkOmg3UHPjLsJXbff/nGOVdYPlVc0Eo0OT3vRdwnFEUkb94dDMWSC6nGocM9tqZJ915c4WyWdhsAkA2I8DB1YLeX3Wq9yddFu3cm9/lBdcOTJNaSXNYbHzBVz9frK/7KtqIJIaD3OxK6o66v4WEyuV1pqktR7/1Jq/kL0IFzUD1ijrhjVdXpVukxqa0H5cvD7bQOXu1r2xoV45xR4z22lun7WvzMKFwSYAYF8OG1gtPuV9qtcNbTBqya29cgR+/Wuw1DOXQ9/MNL+X93bPXCBzYucr1JXfyRW+JCBbiG0F6lxJQb2Q0ZJLfeLP9K/Mkzcq1J0/LGmeupbLYFwVWdaN20d5VUlqaDabzhbymRTCqolyQ+1yijlmttTgPmslBSx/mylgAECkgwZWi893W5NhrxtG61abO/J9Qfyv9rG8+ath61G+5vmmnNj5yrUeq2og5vLXXOzk+tJc6ppjaxRkJv8yF02Tj7avfUumog7Oam4zFhZX1vuwn/Kq0v2t+z3XdOY69g9/+wNk0zblVH3MbKfRfda+st+DWfYAAwDs2QEDK1d7kK7JaF2K/V2d6QuSXJg3+g25eddi56viayCa6vOzi83O6xt9lPKCNUOxZf2N+KazVPOi7djfuZeCGyaNbctpH8fMD9xnAPAN7RZYZfo36VTSx8k1c3Tub1M1Ga4JJ90XZPFP/P1XpWLni5DUQGQvymttsZVLMYJBTlhS21TQjLer2LLei/2UVzXXdLbaPtexP1MGOTuUU/kxs4Wj7jMAQFN2C6z0Dq9U7UrZ0ABJM4e5RgzamWCsZztEpZo7YmucatdMlenKm96pNh3Iy6d7a8X1Byq99T25iMc3f7l+SGV9f2IF+ilFl7WR9MUpd10r+ttHecXxTXS6fb7TemEHeqNOOW0qO2bql+tueQEAnIoDNQX6Zo6hzDOBmE5ze4fYurkjqfGY5nvdbtRQxc4Xyd+p9v7u3ljrJj2jC299Ty7i5X150havv2RgiiPppLy9pJ9WXp2yNmxfnPCFO7nYd6RoNIciTZdXvKSGZzr4Jb+0DEoD15rlFFJyzNQr1wbykjf/a9ZRNygGAOzMnLyj6Kw1Zs8a9+2y/bH7f8582Ml8nv+/eWNpri32vc7QXHqc2PnykuU6y41ZXD5Dy4/7yfv5bfB52FhfwTYXzV+YpzJ2Hbllapa1Cm6bK8vCcqxYT+3yynPpl85Xsv0b7+e3p2Y5Fe6f1fo28xpdrjXzksxffqwU5hcAUIs/x8c6SGCVXGD6y4Lrxupio+MmeP5ikky67HxpfrlvXLxi50srvugky2paweVTF9HsOgOC85qpMzRr2ZTdjuxUdMH15ZbO6zZlbQXyW7heVREMWHXKKy86/fx+dPswX865sqpbTk0eM5tFr+/X2GfBcjVTapttmgXHGgAgnj/HxrrQf8wClbS/h4qcHQexkNebtgxkKPOvx0b7Kx2bPhKnPbiWceoxOYilz2hMHidUeVcpAKBU3fiHwOrc2UFSZzKclz9T8LwkgYGJqtZjlCHetzwmAOA4CKx+nKTW6v3++9RO2Nqq9/tvVwt3GK4W83osS6JSANgZgRUAAEBD6sY/B32kDQAAwHd2MZvNokKw6+tkwEMzv30FAAD47urGPzQFAgAAFKApEAAA4EgIrAAAABpCYAUAANAQAisAAICGEFihhA42eSE3r4vM/y9uXs1f2JUOhHpx8SAT9/9zEJfn/HGyzXHjlnk4p9IBgGMEVotXubkwJ8zUtL5wp+ljTbLz6RQ8z+ojPOznN7KRlFtfZh2r+fNT+oJRfTGYPOSXL5/frze0DckFq3z71p8V5K2h7VqZvMhg2pH72z2Mf27zGthfeVXHS9Q219DYPjqwVDmU5iFVnuHv3aloyeNTX2T0XH2MAMAJOWhgZS9M7YFcj5f2tsVkmsv9eztzkk8uYMlDZNfzmWncl1HPXBRyV47FPz+2xFQGL/FXtn4mHzpFPvDXXcR6s6HMM8svZXw9kHbRla19JR3zMvuXv1Is5PN9av8afWwuO/kYmX/7chf5hJKttyvHrrf/lHrenLnYfZn0DvSomdjjReW3edwfSW+b4OFA+2ifRs8lPwZeBuZbsm8NHSfdO1OiU3n/rLkPAeCIDhdYmV/KvwZTewHMPsIsOQmvnnPn5uuEnszffbPBlYmuAr/KO9Lvm0vivn/h6i/+ngYc4+CFo/tmLihFz2hr3cq9yeL0/TN34ZvLX3+1m/3LfbYQGzf277YKjrY3EY0VOldt9/8Diz1eCuh+mA87Mh2069UindU+yuvIcGi+H9N3CcciyT7tD4c2eDx9Xbmzm5PfFwBwug4WWCW/lKt/0fv5noounN3fYq6XwV/lV7+f7C/cOrVWdfn8jbd6wG1LbpOrdvbCN/mQUdFFcfEpWlFy8ADH5SnbDLjZjGhrlez/s023uzYzxR4vZVqPfwqPlWIN7qN8M2VhhNdg2d0mtTyh78Di9dlsgynTW/dGXqqZ0E/FQWlZniObmyPKp30V2BcAcMIOFFglv5Srf9G7X/6dKykOI1pyqaPLT//KPHkjpSu/kyvpnmqtYrejWCvJvPxNZd42ZXbu5fZWm6FyTR/zv+adPfVzKpE0r17LZcxqpwNpX3zInWuG26qmKGP3ck6UHSvFGtlHGjT0TBjjmyjnQ+mMeoGgSZssn+Vq7uYbm7DIlN32wVVSyyOjD1OKaa4ps6hMNb/tgUi6+d01vW/uxwbyHFk+oX0BAKfsoH2sqmtdXHPL9aW5JG6n9bjHWqvFP0nivvR2BDrZl0UUtt+IXvf8PO6Cp9vsm6FSVxHbd0cv6IeNq0ysoDsiVsdcj9f9uJJ9EOqnVE8TtXS2xsPstVpZ2XkfLeT12bzXH6+bMVuP8scGnC+5gEdn+1r3Y+u+ibZ279L81f2tTX0jyXQFczciDH+Hwqp1fjNNrC4voRq/3fJco3wK+7wBwGk6aGB1GL7WKtQPK8t2hE8HRDF3ym3oypv/hb8c2wtyuXyNQhJM9m2bl2uGWn2W1OB17m9rBZrNbJdRWnOYlq/ZaottwTnbaoYd95FrGkzmX0tqX/JB3mZz587NXy74SwdEpQF6SXNzOC875rlW+QDAedktsMr3kai4fb76QptckKOUXPR9jUlV35r8nWSVdzG1Lk0IsXvA0LVXbXcBsX131heq5OLiahvcBeg6qj1urfZ2nagmArOk5i2ySTOliX20EeDqTQ8Hke8n5m5EqAjQQ9uQbOt+HK98AGB/dgus9C699AV8mWoeyHAB08bdVHmuT8xG/5A01/+mtLmwK2+2bWIgL5/urUYU9V+pyTZvJP10kr47qSDRNUNp08fi893MtVk7cDA1+yY1J/Z4qbLD3XoN7KONALf0O5JXPxhM803iNv+u03rhDSFOqLkt6WsXq16edysfADhNB2oKdIP9aaBTEZEkNQW5/iEpyUWiqK9Iir978P3dvdEMn7/nrTsXG6t+Op+27062JmF9i/ln0v5UPyhoQNI36Vjij5cyi9dfMgg0OUXZZR+5ms24fkGbTV+2li26GbaIy+Pgl/xK2t2Kj6NAvzEvyUu+CXHHPNcpH3tjQLg2DQBO0eH6WPmOsIG7jHQE89XdQCXz6a39bTvG1Z+IX7X+4jy1J+bGmPz5u942Oqm7zu3VfD+dgb3w5y8aSX8V89loy6CgAUfv7xJ7vBRYHyvz7DhYrvm6+g62XfZR0s9v485IXfdGf7epDNqpJnQzjx0m7SnVfBud56zkR4A5/gs7rXt+W7P9ErUMN/JiReS5VHz5JDVmHWngPgYAOIiDdl63g2eaq2W+b8XzVXYw0KL52oNrGS+rB4dccbVWTWs9fomOAD6c9TL5W92uHjHGVev23t7tZC5HG81I68+OeEFJNYXtj16gU+WnU+rCGnu8qI1j5f3ejopfdKzE1IDsso/sMZLP+/OVzPP93TpDmc/v5d2Xg4lQtIksdAjVrrXxx3/EXaWh/CaHcyAvNfJcJLZ8wjVmAHC6LpbasSGCnvhU5Ow4ezrIY1sGYi6iZ9r5PSSpydIAfbvH/BzDOea5GTqUSfJoq+gfUwDQsLrxD4EVimnTTG8mw/l36VCcXKhNhFKrduW4zjHPDfl2xx+Ac0RghQYltVbv99+jxsDW/GgT4RnVwJ1jnpvhakyvx1FN6wCwLwRWAAAADakb/xy08zoAAMB3djGbzaJCsOvrZARmM799BQAA+O7qxj80BQIAABSgKRAAAOBICKwAAAAaQmAFAADQEAIrAACAhpxFYKWDJF5cPEjuWbwAAAAn5WCBVRIcpR64uppST8kHAAA4YweuserYp+XrLYvrKfUcMH022HcJtL7TtgAAgCj0sQIAAGjIiQRW+sDVC7nojczfUxm0XTPhQ75XlT7p3zchXshNqDrI1hSt58mnseqvtXiVm1w69rObV5ObXdYTuy0AAOC7OZHAqiWPX0tZjvvm71RzYeap9iPpXXzInWtCnA87Mh20JROvaLBjApr+2C0/H0pn1AsERiat9rvcu/V8rdoijelA2jutJ2ZbAADAd3TgwCpVg+OmYG1QkAYpb+LDk9bjk2joMvvnl1/I6/NITLQjqxim9Sh/bGD0snFHYWf4Z923K6PZ9QAAgJ/j6J3XM7VFpa7lMjNrW646JlT7O0/+u/iU96mJd+6yNUOtS3144kxWcZHVkfvbovU2uR4AAPCT7BZY5fsZncBdcKNeOj9msn2dmneo9QAAgPOxW2DVfcvUPmWGTjiSVb+nPefrUOsBAADn40Q6rzegdSm2MW7fbXGHWg8AADg7pxVYta+kI1N5/9wmaOnK76I7+OwQCk2JXM9O2wIAAM7RgQOrzbsCdVoFKKu769rJZ5nIpVrr8csOc5Dp//R8JfOvR2myhS5qPTtuCwAAOD8XS+0cFEGDAxU5OwAAwNmrG/98nz5WAAAAR0ZgBQAA0BACKwAAgIYQWAEAADTkYjabRfXGur7W0ZtEzPz2FQAA4LurG/9wVyAAAEAB7goEAAA4EgIrAACAhhBYbWvxKjc6ovrFjbzy1BoAAGAQWG2r9Shfy6XMhyJ/5+49NEOfu2iD1gu5IWrFGVu83rhjmR9gwE/x4wKr5ET3IOVP7lvI6405GYYe3uxrqh4mNq1f8kfeuu6zhu2c1zI2eEmf7LdMp6aobeq+2U6C+jzG6ftnA/k5zLY1ayIPjQWWyfbXTSvu+Evx341TLGcXrB/6kZ32uaLmWB73z/mB7Nsci+47xzNS8QMdLrDauJAXWDWxrafMFzpVm5GdalwAtmZOMO2ByHAsw1lPXi6/5Ouxycc7w7MX9d5IOve3uz9Ae/Iig2lfxrs+jHt17AWOY3fcnmQNm93+jtzf6tYnF8nN70962ua7lPpuyEBeTup6ai7yz+ZYGs739iOozOThQsyhLNeXDZ4rTv5YbMnjU19k9ExNHX6ck6qxshdTc3K+Hi+TGgs7zeX+vb1xkuhn5tFfhCPpNXYyMSeFL5Nu7kI8eejJqD82wVRXbu875pzR0C/z2KAzKJzXMPcrUk/IeqaXqQza5m9bw1AnnQOxZb1rbswF32xrf/wmu15TF//8GCam3E4rcig1+TD7uv8kSVF25S31vdFaQZX9PtUvq/R3Qy+oo94hfujEWbz+MqHeUP4c8UeQlm+TQd1ZHIvdO+mb/J1vTR2wndMJrMyvrF+DaeAElFzwqy6w3Tft79SR6aC9t+p+XcfSZc5W8Z9SEBLFBU+rC2pHhnPz9wluhy3fRq5ESSDR3EWtI/1+54x+iU9E46rOVdv9fz/S342kKXf3QLYpx/6uatnkjz+txdq9yfTUj8Wu3JnTTDPN+cD5OJnAavIyML9t+nK3w9m49fhHTGwVWZOUbRLJ1nS5mp38iS/fDJmL4GyNm12mLO00t5507VEg3a3ympP0l3FpBOcNp2MvAIXrLlBRTondt6lqPVF5j8pr1tXvJ/tLPKqmINC0HS6OdD5Kai/r5nfyISNzAU6aAbcVcTzH7Avdn7ny8LOl91XVMeaP5cwqQs1fkWW/1THuj9HVctkautX2uv9broyay8PpH4vtK3NCnr4LlVb4SU4ksEp+VUv/bsdfuS251JHnp3+l/EY9bTb8kDvX9BFV06UnEduk5Gp85kPpjHqbJ8DpQNrRabsapHTtkS6X+Xm7RV5z9EJku7+49Of379K2wVw5Pdk/X82TPOmkncnrlpOZxtLLLbP7NlWtJyrvUXkN6crvJIIvrynQ9JOCz+Rj1Mtd0DaOrXt5b/dMKeVszFdwDKYkTUbXsn33noh9FZsv/W60/8qTS0sPey0LvSh/3LllI46x1Q+oVXOjCXJ+mR9mnVRzX2TZb3WM26CqLYPrcWo5kV75QikLSXbLpa1F2y4P3mkfi63khMyd0/hZzJciis5aY/ZN475ZvrM0F/eA8dKcY5ed8IdZNh1Zmi90kDnxl6yn6PP8+udLc65aSmdo/kr9P7fSJK2+WTr9/6q0AwrKZru85iXzh/OeTrsqHRVOay1cTmnNbFP1ejbl814/jWzec+nNh0tzedvchkD65npWeWzFppfkaX0M5tl1lXxe9n2qta8q8hXMh1v3Oi1VdYw56fLZ+P7Eln1IzPrzZbApuB63vcmUL9e06jyczbG4sSxwfvz3NtZJdV4/nPwv+LbYGuuin1WLT3mfmlNGrp0y+TU2k3+ZH2k10660Y3qLfyaH5hSc62OT5L2uZN2FXDlV9+fZdZti15OWy/tWaaT5moKCGq6S9LPNI3P5G5qvdWlKKaXWMZjTuTJbv62KfbVLvtpXorske7dcxTHmtR5FbzrTmh2tOVl3zjeiyz4kZv2uDMy6Y5vs0kw8Ys7QX+v8bogsg5UzOhaBH2C3wEqrg9Nt7Fvf2ZbYPvhYm+uZYeNi0AzfbLGa9IR+Jra71Tvfj6QtAy3eCo3eVl6ifD1xed8lr61H7d+irTDFfcFC6WeCWhf4xjrVY/AY+eq+jW35m1BAhr+zF3lVWfbWNsd40oQ/9oGdXW6XuyC3+56lcSwCp2O3wMoP5Liayn6FlXG/0Gb/Ck8KcVzfhZ37aoUlvzTz07bbfFiz2j8jXT8SGcp8ta1z27elSv11bad4PfF53y2vXXlLrq7y8uneygmlv75V3sjXBlTY6his7HO4u2N8N+wQD52OCaumMvi1GVBUlv0Ox7iyd0LqMtq/yPZF2ya42i0Pa2dyLAI/wIk0BZpfgEm9/k4DC9rxaswvvXwV9c7cCWe3i/CRuLznawPt2EZlfPNBnQE6C9bVuKr1xOS9qbx2fycdqd/f3RtO61buzfuh9G2taudekhv1XLNSfr587cGWx6Bt6tmnLfO1s8mDHXSz//QlXz6g8OeO2LLf5hgP0cdbaR7yzWC5gDYb1DlN5UGd4rE4/2vC3t1qhoFzczp9rLpvq7uE8v0E9K6Zqr4MyZ1vU+nsZXTlpA/Dxp062hRaNSRADNvXZF8D6W3eNaRlVVlrHwg8Jg9VTRThvh4x+6+eivVE5b2pvPofBVN7AVlr2UFk8+n7su8/+XGVAvPpbfFtHX4kbbtjcP/9XrbLVy2uy8F6v0zsoK/SHyffdR9QrO4SjCz72GM8v/6NbVvYkd3XAYrJkg7gJCP58Os3y+j5acNW37Mip3csJsFkRwLdu4Bv68CBVWqsJj+lvoi2at1EV/m2e70VOT9AaH6e9vu9rUrf1yNm7CCD+bw9X8m8iYEHzS/eP+5EZdPNnK12p3nXZ5X5sm//fXLNF2W68uZuofbbq/vB/jAvoeuam21Jl1NPmhhBPat8PXF5byyv7sKeFzpmkjveswNGbuTDDkmw2RwUSq/yGNxr0J7YKl9b8LUetgnQbNW6X5UJKP645jj33Ykr+3rH+KrWxfwItEOWuGVsnyhtyktvr86T3qdaHsHv3Hbfs0Indixma8SAn+FiqQ3jEfSLoyJnB3ASUn14Gg50DiWpjb6W8ZFGcz/2+s+XDizbk9lw84cxcE7qxj+n0xSILblRsXeu5WoqHZwW3zx0rqNfT+RloI+6OlZQc+z1n7FGRv0Hzg+BFfDd2eah83wY7uL1WUadoQRGUziIY6//fLl+Z+nxxYAfgqZAAACAAjQFAgAAHMnFbDaLCsGur/WmYI3Y7AsAAMC35yqsxMRLyR8VtmgKtC8AAADfng+saAoEAAA4MAIrAACAhhBYAQAANITACgAAoCEEVgAAAA0hsAIAAGgIgRUAAEBDCKwAAAAaQmAFYHs3ZtLB8/S1yKuZdB59LaLPh34wk86XnjTdsmdH5+f3ky5Xtj4VWi49TcwEADUx8jqA7SWnhUTfTG/Jnxka4AzMNDTTo76R4z/3Ou516l5VUdp+/fq5p0+dSC87NlM3+TMjtGzabzO1kj8B/Fx1R14nsAKwPT0taCDkA5m5mfLBSFlglQ6qQgGQ1hr1kj+Dy/vgKHReqkq7bFkAcHikDYDD06BH/XKvscoCH6Xv6WcqXasVQ4Mwn69n9woAe0ZgBWA3WlulQYyvuYrtm6Q1SkqXCwVVnn7mmwfr9nvyNVx18gUAOyCwAtCMJ/caWzv0173eu9cyfp4P91qH70P1z70CwB4RWAFohq9Z0tohXxtVRjuZq0v3ui9X7tUHcnl6N2J+onYLwJYIrAA05497rdsfqso+g69RYKJ2C8CWCKwANEfvCPRNb1rz05R9Bjp6o09+yt99CACRCKwANMuPN6U1P2WDe16715igyTfj+Wa9OnZZFgBqIrAC0Dw/zMGLew2p6vuUtkt/LA3w1K17BYA9IrAC0DzflOaDmhAf6FTVbGlHeO0QXzUsQ0h6SAdGUQdwAARWAPajamDPdH+stplCd+KlR0/3wznE8M8e9Mv6TvUAsGc80gbA9qoeC6MPQ9baJhV6JI1Kz6P8YKDp94qW9ev3y6j0cir0mB3ll+VZgQBK8KxAAIdTFVhpzZHWRqmix9Yora3SgUXzAZZ2cC8LcPz683RZreEqazosWtYrCuYA/CgEVgAAAA2pG1jRxwoAAKAhBFYAAAANIbACAABoCIEVAABAQwisAAAAGnIxm82iurlfXycP9uKuQAAA8FP4uwJNvJT8UWGL4RaIrAAAwM9QN/6hKRAAAKAhBFYAAAANIbDCaZo82OrXh9CDeQEAOFEEVt/aQl5vLmyAcnHzah/bdh5Mvp9HIv2xvJU96w0AgBNDYNUkW8tyI68nE8G05PFrKcvlWPrTd/ncY74Wrzdm2x/ss3SLuUAvFOQtXuXGBYCT118ykKHMiaoAAGfmYIFVcuF1tSepabemnlSNTCgh15yUnm7yUU9gnmSqChLOhA1YejLq3Mtty713csx+/DUQGY5NODWQj8svWX49mrAQAIDzcuAaq44M51qDkkzzYUdGve2Dq4XWbEw70um4N9I0YOqNpD9er2857st00N4MrnL5SqY3iasvSQV3Zn0iUxm0zd8n1fTWl/FJBCquBi2Xl8lD29ZQ/XnsyuNT3xwT3ySoBQD8OEdtCmw9PplLvsjoY5vL6EReBlMTOP2Re/dO2uTDBDmdofxOR0fd32JiOZn+nbs3muCb28xkArdVkHYqNS6tR/mKDhKPo/uWKq/uW42gFgCA03KCfaxSNUAlTXKTB23eygVOedO/kg2h5vJ36v5sQKZ5s6yGyvcfSk3BWrp8s2RVVV7F/JOH1GdmytfU2c8137n8+WTSy2/W8hWZyEMqrexybt/my6piO2w522XK0gYA4PiOGljZ4EhreFbRkV542zK4Hq+b5MYivXyAYQKB55FZ7k9xrVD399CkPJLeKjDTtHV9fRk30ClaL/Zt7RbkmhDn9+/Stk2BORo0JDOmtkmbu3LBVaDpciy94mbSivk1KHq+yq5Tm0E30psOpN3+K08+jb7YvGng8nFXsewGLe9nufLNqm650gAovx1zs99Gvc1lNJ8XH3Ln8qnNyHF5AgDggMxFKorOWmP2DeZCuEpjNXWGy7n7PDFemuv6smOilWLzpbmmLvVKHP5/yny47KTXF5pn3M/myU6dZWkWXD7z6SXbmF62OG8m5khtf8k2BNWdX23m2eZB+uaTFFce2X0Q3t40v3/zswS3s2K7k7TW+dosVxVzrAAAsBsfG8Q6Wud1c7G0tRAvmRqHtlzZt0tqOSYvMpjG1TotPt/Ftvx1OmbNxqi32Qxl+/S42hI3jftJB/TC2pDFP9FHMXau2sn/ndZl8qDqlcWnvJsM5OdTbbuhbgiEkvmC6s5vJWVbqX1ly+r6Ml0XGLms9OUut1sy25nntqOfWygpx5n8yyxzLZks+WOl0f5yAADsZrfAKt83psYYTq3HP7YjefYOsKQj+LifBFdJmunPJ/LQG0ln+Luyc7M2ha2a6r6+5EuDpiRhaZf1hzK6b+OoTvXZ4KNYaL6NIMyITc8rnz/fV61tAlL30YnxTY+rKdSkCgDAGdgtsNqo7fmSx+jYwARRTzZ8kXz8Yu8S0/S0v026n9Tkw/wvHXTp5AIGrY0y/7e1TLYPlpgA7E82Pya/SU1Z1WCZroZm9q80AJtlq1QKheZb/NM6r6zY9Lzi+V1fNR1kc7Vv5jaQPY58bVNWPz0kxmqqcywBAHAajntXYPeuvGZIhwrQWibfLBRotlsFDP2kw3szg3W7uwevL8Od41uXJlTYbIayQzyktW7lXuO4QHPVXFfgB+0sSK9Q1fy+qfD+trBz/37km+/8dl6ZUDXAbUfdgBIAgFN13MBKunKXRFauRuoh1wdqkTwzru6o4T6gGfzKNk0uXuWXVm/1n1xtSNJclu1LFXP3YFd+23bM51X6epfgZgtWS241I6Ps3X1+3v6Tv6vRp5edT5szw33NKuYPBF52EE4NFvdK+6almoPN/sxuZ16yHRt3920cBwAAnIcjB1bm0ppEVvKsV2NtqtNhC9LNfNqcVXuwTd9Xy42C7tPzwx6sAqakOTLbx8c3oZUPUtl6/Mqk3/775Jous3Q+7duVXofv+5WO23Q+baZMz9eTsXwVtIeVz9+VNzdsgf9Mh16wlX/71DHlNr+Xd1/mJqrSZr6yWsRQ+Vw8X22xzwEAOL6LpbafRdALnoqcHQAA4OzVjX+OXmP1c7i79GjiAgDg2yKwAgAAaAhNgQAAAAVoCgQAADiSi9lsFhWCXV/rDfwiZn77CgAA8N3VjX9oCgQAAChAUyAAAMCREFgBAAA0hMDqO9BHwFzkH80DAAAOjT5WZ08HHm3L4HqcelQPAABoAn2sDmb7kdT1IcwXFw/Jg6cLlaS/eJUbs6P1s8nrr+TZhjWDqp3zAAAANhw+sPJBQWq60QcwI5IJdn7pU5zHJpwayMfllyx5YDEAACfhoIGVrSVpD+R6vLRVask0l/v39v6CK9v/6EaOErvttO6WPH6Z8skFTZOHtq2h+vPYlcenvox6uVqnRrc3nAcAABB2uMBq8Sq/BlPpm6Aq22qVXLy/Hrl0x+i+pQKd7psJTN+EnlUAAJyGgwVWk5eBmLBK7mKigEBzYf6ON1v7Zfv+TOQhNd+65sv1D+qNzN9TGbTdPC6hVR+j1LoytWYReShWvu61oryrgv5N7g7A1bRKM3adeVvkAQAABB0osJrIh17v+3fVtSsaOLS1D9F83Vw41iavQGAzHUj74kPu3HzzYce81XbzuWYss6xIxyTn0spUl42k136Xe/fZqtasTh6CItddmPcCmi8TOGmtn01vPpTOqOeCoZh15mkenuXKz2uW1TxkgysAABDroH2sOldt91eRhbw+mwisP842DXbfROOF0XO+5kQDiHVTWOvxSTSsmP2LDww6wz+SbYWsm4dt1c37Ol+rWKn1KH9sQPaS7WdVQ3/8td5+t43T98+GthEAgJ/loIFVpcWnvE/DAVj7qqNXfPnMXPGv5TITFLXFzvZ37v5fpSP3t5kEtsjDtmrm3eWrn2tLbV3qwyFnUiOWTNlsmm12GwEA+Fl2C6zy/X0q7kaLDXiusxGHlQQQh3MKeQjR5shMmds+VQAA4BTsFljZu9Jc/xw7pZqVMpLaGJn9i2piCjWHLf7N3F+HcQp5CFn1r4oq923la9MAAECMAzUFtuyYS9rZ/KWsM1DrVu4LmsPmf7V97l7yLXeNO4U8hLQuTbhT1gdrG5tNiMk2XplQGAAA1HW4Pla+83fgzrrJg7/NvyW3GtWMepl5dGgEbfHqP20xUGX7SjoylffoTkMN5qH2ust05XfozkFtjk0Ph1BrnTosQ6r51qS1dTkDAIDDdl63g1ua6CrfT+j5ar66A6/1+LUxTzLyQX5g0UirO+faSXql4xkkGsvDFusuE8rXxfOVzNMjo9dZZ2co8/m9vPsxr9xQDluVMwAAkIuldtKJoBdeFTk7AADA2asb/xy0xgrnxo3KvmNNGwAAPwWBFQAAQENoCgQAAChAUyAAAMCRXMxms6gQ7Po6GXXczG9fAQAAvru68Q9NgQAAAAVoCgQAADgSAisAAICGEFgBAAA0hMDqp9JnDOrgn2ZKntMIAAB2dZKBlT6U+eLiQcLjfS/k9cZ8nn7wcAwbSKQeOGwlaa0GFrfzFK13Cxvr3DLvNekDoyu3o/tmO+Lpswen75+N5CdqvScvGW2eYBMAsI3DB1aLV7lxNSVFNSbdt7kMOyPp7f1RKi25vBYZfSTrWfybiXSupG3/9/3ZQKg3ks797fohzgAAYGsHDazshbw9kOvxMqktsdNc7t/bueCqJY9/htIZPedqmJT57Mss9/UYEQy4GiIN4EwAITKVQdv8naox6r6NpT/q2XlM1mT4J5dusKarTNk66+T9QPpj+XokrAIAoAmHC6wWr/JrMDXX8aW8dd17VhJsbFzcW4/ytfyS3a75LpBxTV4iHRnO84FNV95WQd6u61Mx6zwNrccvWWZ3BgAA2MHBAqvJy0BMWCV3EdfxpI/VesrWZsX1U0r6+7g0SuYtXpdbT7rWSecpaZ6sXmc47+XbWyDV+dxOwXwl/YXC6caV44ad1+sEmoSrWn5t+dr8Nph+ZntKaiajthsA8NMdKLCayIfGJ/07qYqrNMh4vpq7GqSk1mc6aFdedNP0Amyb9bSmyKQxv3+Xtg2QssrX5Wqe0rVOOk9BDU/sOvO22l69yJu0tfbPLzeWXm6ZkfQuPuTOfT4fdmqX44am1qvpJIW1Ske3e9SrDq5MYtJuKv389szv5b3dM1uQszGfNlP34gJgAMDPYi4UUXTWGrPnjJcmPFl2TNRRX7KsXtUS86W5li6lMzR/heTnT5gLsMl/Z1mehcCy4/52yxmb66zKuwqntebSKPy8aFuTdNf7ICYvaQ2vN5COiX1K89Ns+gXzzYfLTkR6SV76Zu0AgO+sbvxz+LsCa2vLlbnSRVv8E31MYucqe29fS2//q1RzXd5O68yryMPiU96nm+vadC2XmU5dSbrTv3P3/5qaWm9JOm0747t8llYENZX+XP6G5mtdmjWkuPT6uTbsZN/O5B+VVgCAlN0CK20iSfc7qbh7Lu6inrqrzk5tGZgLW13X2atvgWbW5cWtM2+7PGy3rt01td5QOtsFomGV6btgOJY2I673kZkimnkBAD/PboGVH2RyNRXdVedqYWb/KjpKa5BhAgsZynyVpo5p5T6uYVZZldDcurzqdeZtn4f662pGU+sNpWPHEWtIZfr5mqkK/VS/svXUxF2kAIDv5EBNgS15fOqLdjx+Keuc7Jtxdhmw0l0w87VjE9t7PqWJdXmx68zbJg8F69q7ptbbupV7bZELpDO3bXP3crvLDolOv6BpNF+T5bb7WIEsAOC8HK6PVfdNxia2Ct35pXfG2TusAhfvyUPd5rmu/NYqn9TgonrH3kbLTey62lfSkam8l3b8iVxn3lbb69eVvRtvVYZ709R6W3KrkU8uHV9e/addx/uKTT8wnw7R0NZhQdKS7Q7eeVh3qAoAwLd30M7r3bfl6rb3dH8VHW4gGSC0K2/uVvb0ZxqQ1aEDX47767Gn2n+fklvk3eeJyHW1HuWPu7Da+TJX17W4deZtt726rrnJU7oce7L/EdSbWq8dmDR3HPihKpoYrzQ2/Y3taf+Vp0BTbCi9i+crmZ/goK8AgOO6WGpnkQh6MVGRswMAAJy9uvHPQWusTpa7u7GgMqpBbsTw/a8IAAAcAYEVAABAQ2gKBAAAKEBTIAAAwJFczGazqBDs+loHBtCIzb4AAAB8e67CSky8lPxRYYumQPsCAADw7fnAiqZAAACAAyOwAgAAaAiBFQAAQEMIrAAAABpCYAUAANAQAisAAICGEFgBAAA0hMAKAACgIQRWwLl6NZMOXKfTRN8o4efLTw9mWpgpLzSvTlXzV6maT9PWdfj5dLpx74XW68WUhaaTTrds0vQ8/16RUJ510vWV5dnnR1+L+O1K5wfASWPkdeBc6QV5mvwpfTO9JX8GJV/fZD5Pn87glx+bqZv8aW07f9X5oWw+DR4GyZ9Wx736daqi9GPKQoOf/BMp/DJ+Xd6Tmfz27Zrnovz4dFXRPD79oZke9Q0Ah1Z35HUCK+AcaU1I20x6QR7pG0bZd7MoOEgHBunPmpo/r2g+rWXqJX9uBG1Kt/eXmb7s/7LqloXnl9NgKJSuF1MWoTyntykUGGm6um4fhM3N1Er+XCGwAo6OR9oAP8Gne70zkwYUqqo5MEQv1r6WJWb5uvPHKguqlAYcRcFPU2VRV1lQpfQ9/Uz5eUM0aFIaOAI4ewRWwDl6d6968daAQj2713PjgyAN2EIBSpVjlIXWJKmqPOtnZYGo1lb5YFX/PkRACGCvCKyAc6MXX70I+9oZf/HW98o6SxfxTVHaLBaj7vxVPtzrvXuto+myiPXXvcbk2c/jtzNE+3Spcw2OAawQWAHnxl+gf7tX5S/evlksVrrmJd+/J6Tu/DF8h/JL91pHk2VRxy55DkkHhL6MAZwlAivg3GgH7Xxgc+tefbNYEb0zzk/aIdP3/fnjXvPqzn9ou5TFocQGX75My/pjATh5BFbAOfF9cPJNUBpY+BqPsn46Goj4SefXjtN6o0tR7VPd+Q9p17I4lH/utYrm2zdpaiAL4CwRWAHnxDd9aW1MujYpfSEu68ujQZGf9C67qlv4686/jWv3GhuAeLuWxS7q5Nn3x7pyr2X8WFYayO6zjxiAvSGwAs6FXmj1gqu0NiZdm6STvqf8POfCBxx1mu6OXRY+zz5oKlO3P5YffuHFvQI4KwRWwLnwnbF9c1xo0iYwdQpNYLF8n6g6TXfHLgufZw3cymqWtCO6bpfmpWxYhjRfK7ivoBDAXhFYAefC1+j4i3pIzK39pybdt0gHCg0FQhq8pJ+9d+yySOdZh50I5VmDKt8R3Q+nECtmYFEAJ4lH2gDnQAOKmMevKPf4hcwjUvx7sd/fbef3tURp2h/J9x0qS1f7RqVraXxavllP6TapXcrCiy3Tsjynn1GoQnnWWrVQ37SqMk6nXZQGgL3jkTbAd+SbvvJ3wIX4mpR9juNURAOB/JR/8HERDb60piYdnOik/9dt8sHRKZWFBmRVed42IEoPadHUeFkA9o4aKwAAgALUWAEAABwJgRUAAEBDCKwAAAAaQmAFAADQEAIrAACAhlzMZrOobu7X18nDsbgrEAAA/BT+rkATLyV/VNhiuAUiKwAA8DPUjX9oCgQAAGgIgRUAAEBDziewmjzY6riHgz61fyGvNxdycdiVAgCAM3Umfaw0wGnL4Hosy7eue2//Fq830h5cy3j5JodbKwAAOBXfp4/V4lVuzMZc3LzK5PWXDGQo870HVRN50HVePJi/JvIymEp/7IMqV3tl8qMPxW9MYU3cntZ3NN9tewAA2HS4wMoGEDfymruqTh40kMm/by7CvwYiw7EJpwbycfkly69H+2D7fZo89GTUH8u4P5Leg8ibiU73G8uZ7XweSWc43249LiirbCL1QaqZbvI7IILW3Pn12IngCACAoKPWWOkFuzcS6Y+/5DEVNU0e2raG6s9jVx6f+jIyUU4mbigI0nZi0uyN+jI2EU73bSz9US8XrLTk8WvZaIC3cDVxf9Ibv1JvfaPn4mBn8jKQqfu7rqQ51MS4c5MXE2jqNL9/l1+NFj4AAN/D8QIrE8i0B9NgbU33LRVQdN/MxfwAfZwy6+keoLbKhE6PmzVxtgavVo1QR4bDvsj0XT6DC03kQ4PX4dDMWVfSHCr9p0zgq/n+CgaDAAD8bMcJrLRpKqmqCl+gU01cdlpVHbl+OrqsTGXQzn+eZZuwbJDi+04lU7A5LNVc5qdssuV9hJImzVzNmnLbkkmrcl2qfH0Zt3fS1/J42SyHxeuzjMynd7fuDac8v7nawNm/6jxk9pkun+R/m6ZHAADO1RECK3PB/TWQaaegM7peoE3g1B+7pqf5UDqjnrtAu+axcd/83Vk3T5VVLU0H0r74kDvfjDXsmLfa2UBG15m0dyXp6WTWMepV9F1K6d5pnkbykZt/otVFGtj4LJauayH/dMT868uo5r+1riSr/8gFSgv5fNcap7uNGr/S/Hbu5dZmwKWrZVhWEBv77F7e223Ryi4AAH4UcyGMorPWmH3TuL9Kw1zpl2P3dtZ8aeKepV6h00wwlF3GptVZmsCqVLJcfr7x0sQKy87qzfA6lYl3ltIZmjmUm2/1/7xQOjXXpWUTvT4jXQ7z4bJjls+ufvPz8rzk85tY5S2TP69gm4rWV7Y9AACcGH/9i3XgGquODMfa10fvugvUgCw+JalgydavtC71AdAz+bdVq9K1XGaqf9pyZa7407/z5L9unZ2rdvL/lLadsajvUl5Lbu/N/Olao8U/k+uO3CfVP9Xr0vL5s2Xn+Nat2NWnOrFna5/yfH6f181+kw+zZ1L5dWyft+VcTGDkagDTTXxz+RvaptalKXkAAH6W3QKrTL8a37fGfVak/Sh/9Aq9cdfdmjaLZdK1far26zobfVlJQBevdXtvg0bfvLb4fJdpILBpYl2bXKC0CgSTTuud+9vCQC3J71TeXeRYFYjZZtjlWJLWwV/JvrbBIwAAULsFVvZOOtevxk7ZYROK6F1lY3N1HvXCgVjf99XZIu1tzQLVYQvb4akGV2uUpJX0bwoFNo2sK6D1+GQ7sWug5DutP5UVmsvv9P3T5LY6EEt05U13nlmPrfSjZgoAgJXj3BVo2LGi7J19qTvT3EU6FHjsjQ8ufNNgyty2cRXV4IQktUY2ULHNfrlmtUbXFZJ0NtfapF8FndazUrVcr+FmwJAkCOxI0vqXa1r1qMkCAPxARwus1jUf6f5WXfk9LLhrLz3sQPsq04S1G9/XKNs0uRq89KlenyfbvGYClZeXUDNgs+sKSe72m8rUBHXD3+VhlfK1XINBoBnQNvXmhmRYvMqvzNhWgW3S4STa2w9KCgDAuTpiYGV03+zwB+mLsh000wRcmX5Wz1cyTw+k2Ur6aWkAZj/PRGH1hdbpRxuvPUiorZWaymgUbgZsdF0h3d9JJ/Po2i83pIKxEdhpU+9YpOfyaSc/VEQqs7pNuh9X29T+K0+uLxYAAD/JxVI7MEXQC6aKnB1nRAcLtY/zaXSEex2UtSczE4QxSjsA4FzVjX+OW2OFE5B0Wq/ujwUAAKoQWP1wyd2Dcf2xAABAOZoCAQAACtAUCAAAcCQXs9ksKgS7vk6GgTTz21cAAIDvrm78Q1MgAABAAZoCAQAAjoTACgAAoCEEVgAAAA0hsAIAAGjIiQZWC3m9ucg+ePng9JEsF3Lz6nNQkif7sGLz2Y7PLAQAAOftKIGVPpvOBiLp6ahB1C5MANYbSX88ln7qYdKNWbzKTa6s1sGeY+e5kdXbNtB7MDkDAACHdNjAytXs9GZDmS+X9tZFP42vB9JeRSUtefwy7389mr9ORThPk4eejPpjeet25fewI6NecwHN4vVGLtoDuR6ny2ou9+/tbHA1/ytTuZZLl7HFP8YaAwDgGA43jpXWqpggYWqCkOXbOTyXTpsCezIbzuXr8QjhnSsvDaqqiksDsPb7vcxd0Jf/PwAA2E7d+OdgNVaTFxNUSV/GUUFVuD9Tvglxo0lMBZrOoprnfD8pO6Wa1VYK+lhlljNTbmW21skuk/TZ8vMF857iy+uurLjctrYHU5HpQNou7fX/Q9sBAAD25UCB1UQ+Rualfyfb1lVpUPV8NV83iY37JnZoZ4MmDXLaA5Fhdr5RryK40uVsPym3zPxe3ts90SyX2lhuKJ1RbzNoskHOh9y5PM2Hnc28Z0SWV+tRvpZzMcmZecdum5P/d2wZfMkxKtsAAPipDhNYLf6J9vrpXLWT/1vZGhw7lUQ/3bdltkmueyd98zL68Mss5PXZRCMmwMjO9yYmtpLRc1Hn+PVyq8o0DVg0SHL/DQsv98cGTS9m69I6JtZ7WwVJrccnm/fZv/LqpGx5lVvPO5e/U/cnAAA4qKPcFZjoypurwVkuxzbQqKctV+nIZ/Ep7yagCAUjbZ1x+i6fwTgmCUQ2lmtdSvLYxQJuff1cW13rUpeaSTZmWncsTyR5n/6du//vIsn/dXYFG/8HAAD7t1tgle9fVNSnxwUpuwUSro/Tal1t0a5EeaGAIgl2CrjatG1pM2OmDHqVDYjRtiqvHbcHAABsb7fAqvvmapz8VNSnpyt3SbtdrokslgZVJpCS9DANrm9RTqh5rXT4gaqaqQqr/lWZade+Ta42bvavoPkykXTmT/qCrQI8vfPS/7+0YxkAAGjawZoCu0lkJc/b3Kbmm/nub4uHD2jdyn1B89rctvXdy21w4YJmuaqaHxeQVfWT2k5LHp9MeU0H8lISG2m/M+2cb8I7GfugLv3/sxjWAgCA7+Nwfay6b6u74TZqUiKDmHTwM3nINwW25FYjq9zo5zrcgbbO9Z+KxnQKLOfH3HL/DUsGBA3emdjEKPK+033gjkatqfJ3HtrauM6VCQ8T+f8DAIDDOWjn9dbjl9gmvFkv2y/JD5FQWMPSlTc3lIFfRodesJUzKTZ982a631OSdPkgm7qcBn3r5rS/8lTQ1JgWWt/F81VjA3P6GqlM+mbSbfd3PtrauBT7/+vLRtYPAADqOdzI6wAAAGembvxz0Bqr78uNyZVvswMAAD8KgRUAAEBDaAoEAAAoQFMgAADAkVzMZrOoEOz6OhlG08xvXwEAAL67uvEPTYEAAAAFaAoEAAA4EgIrAACAhhBYAQAANITACsD3oc/qvNh8viYAHAqBFQ5KH4qtF76Lixtxz5EGGrKQ12d94vq49NmgTVsf08cK6Mx237hniTbxAHgAO/l2gVVyknuQ7c5vyQnq5mhX/OTROMdbf5Hm8pU8iHsp4/5U3j93Se9Uy+o07PY9OCOLV7lxAcXk9ZcMZCjzfURVtiYs/GPAH9P2Qe4f1SUes2/q7b+WPH4tTR7G0p++y05fq4zc+dCW9b6OKRccUtWIb+AwgVVJ9bz/tRf8Ph26Wn/yIoNpR+5vW+4Nw+UheFJ1J/VjX9x9GeanUz1HTR4upDcSub5MlTNQm7kY/xqIDMcmnBrIx6UJcL4eTZhxeHpMtwdT6d8dsKoszZ6LejLq3Ev69LWbllxei0z/zu3/Fp/vMu1cSdv+r2kmOHzqi4yeqcnG2TtMYNW+ko55mf3biEzk831q/wr90pt8mKuv9OVQ5yq7vv6TPKZOTIt/fkCwqQxeTjRSsToynOuv1mSyv557pxtc9cfLgzbX4PuZPLRtDdWfx669KI96TdemuFoU/aGivwT0HNA2fxc0t3WG8yMf030ZNxxYdt/G0h/1bBm0NYb9s8fAtXtntmDXmmzg+A4TWLVu5d5EVtP3z9wJaS5/k7hKo67cZwuxMU3/Tg5zrpqIxlWdq9DvsY70+2YDzujXVOvxyZykwgHrsXXfNoMq/cVP/xDUocfRqoaq+2Z+ULw1fK7wTWxmGuu3yf14CQQvmpev9C+yQ2s9ylfj26+68uZ+rC2XX5kfnc3ryp0p5s3rBHBeDtTHqiW3SWSVbf+ffMhIT1ZD+23Kfrb4FK3M2gh0Vk1zbiqskkn64Pj5KpvrXF4yzYApV781UImstfL9PlJTWVNnMpV05o7e5ggxacXmKyP1695O2dqDYODk1hO1ORF5suvY6AOy2RfLNp3avFQfI0mam1PR8bTqG5M6BtLz5tPbTKe8HOvkPRExX8UxUbZNRZ+F94Vh11V8TNXavop8xx4PIcl2uXQLAv5d0s/y+zxQXi49n5dQutXHVFadMq5Ke5e0QvO2rwLXCeDcmF8iUXTWGrNvGvft8v2x+78xH3aW0hku5/Ph0nydlh3zc3DFzt9Zpt/aSCOwnE3TvJdZ1i2XST8nWa6/TGXPSt5P0kr/7T4syHf4vfS2F21L5bKF25wtK/MDe+O9mLSi85UxXw47Zp70Bmo6qf/b/Oi+dv+3VusKLJ8Wmadkm/P7cLw0YXugvLLz+veymxCaJ1emOeu0N+fT9ErLOqIcg+m7dMLbWD7fRh4Kj6/wNhV+trFtieBxkLJOr3zfxOQ79njIS9a33p6ibdwtfb+c2+e5dGLLofqY2tRk2nXS2pxn83iKyT9waMkxHh//HC6wMl8pPeGsLxLpi8jmBcV+ETMn4PDFN/mCln+p1WZ6Wfkvvpc9AeS2YeNkHs6jyq6/YL7I9Iq2OTNtbGtMWrH5yqu+mATL351EkylwkrXi8xTeh5t5y+5TLz9faJuqt9Pvi7J51pL01tsWn36+OPLlGzdfveMrlK/iz0Jpx25f1b6Jy3fs8ZCV3yeJUL62Sz+bz3AaseUQEs5/WpNpx6UVSrtgfZXnGuDw9BynU6wDDreQtJ/L6MNVdyf9q5K7aFxT4eqzpH9V5/523ZfBNQ3m77pp6W0rMpNsv/jNDu9RVcyVd7x05bc5o8uoF26+Kmq+NLLrT7Z9Y77WpSTP0HZqbfO687o52Zl1DSTTahmVVmS+NrTFbt6gXdkMEWLO0ybfRf03ts1TlWvJ3pTotsHdAbWb4iblrGSda7HlGHt8V8xX8/gq3qbQZ/47neqXWNHcvlaxb2rlu6bFP5PC5vGWpN2kkfQu9O7YvowL+0Ztc4zmj6kiTaa9z+8ScH52C6zyfRwq+uN0bWTlTnz2JLs+8ScnrpHYvtbuxBm6HV/vdMus096tczirTuHP4X4XKpTvzInZnbxj1d3m1uMfSeK/zT4bpWnVzNda0snX/Pq2QUGSdqi/yBa2ztOuXEfawctqOxavz5GBQZF8/6m2DMxxvrbHciyxr+9U6/belNb6Li97122DwwHs81yw/6FA+jLUL6k/522t6pjaRVNp7+O7BJyu3QIreyeOv2OkrNbBscMuJCdaO4xBuobI3mprwi4TddnxUgK/tlVSu5GfYu9Wyf+yypn+lerfWF15S6588vLp3srZHFbCnEhWwzYYNWtb6m+zGxMmcNIuTWvHWiB7l5amNx+a/ay/yBsICnaumdqWuyvVbkdyYbG3m89jj7U8vUglwwPMV+U+twFw3vblWHF8r2Tn2+07VSJzN7C76zZdC72jveXbCH2Hm3ZZ8gMoTvwxVV+TaTf9XQJO2wGbAg1/ov37acevyp5k17fafiZthNnqcXeBjTvhbTYHzJP2pHUgl2ObSGJ1fycnxPd394az2r7N8CxZv/+1XlBVnq+dqbXNOS5QXQ23EJVWZL6q6K3fGnzm90MucM0Em4Xi8xTch9vWeNla0+zYYDtdtF0tbK3AoqgcN/5fdHxXzLfL8RUldTfwa2wzYITIfG91PLi088dbMqZe1u7Hm9ZQjs331AQcBXceltrmmIrVZNp1vkvzv+ZH9SFqDIE9Mgd5FJ21xuyFks6OSVrmF2dG2WfKf575TDtABzrtmlPCukNlzJ0mdp58J0yf3ub7Pk2d0h0tQ3mMes912oxJL7zNm3k012Tz/rpjbHxa1fnKyKVhFko6F6ffc+W1SjdVfpn8BETnKd/xtbRM8x2GNztEJ+W3OZXlt2hfmNQ2Ov6u0vfvRZSjL4uq47vufJltyuWjeJvKP0u47dYps21hSXrV+yYm32amqOMhL79Nfl0b27lT+qltdPul/jEacUwFNJl2XFqpZXNTPptJemXHE3B4/niNdfDAynxz3Mkn/2U0Vp+VfLHcSWg15U7W9oup76VOcjrlv8Ab8idJp/iL7k4egWU28liwPUnafh4tjyTNyvRC2xxaR+CEXZWWis5XSnaZiHRT+6hy3xixeYqZL5knf/y5/bnKTPiupWTZ4uOz9PPcMalp2wtOqgCy+TdTcF+bvFcc33a+VBkXzWdte3wZpdvr+Itq/H6u2jfOno5llQkEdL22HDe3c5v0Q9vo0/GbGF0OEcdUXpNpx6UV/12y6Qf2I3BM/jsQ60L/MQtU0nZxFTn7GUr1KTjS88ZwOnTgw/bgevOOLR0Isz2Q6/FxHslTmK8TpgNDlt/9hu8s/rukg4z2ZDacH3cUeyCnbvxz2D5WJ811+K4akgFnwN/NtH3n+cxdqism3V+DwhsrEJJ0Wt/oM4kfI/q7FD0cB3DaCKzSbKd0HgIKQ+94HeuDff2t5jr5u6SoeYnlb6sf/qbEfqyo75IJtJ5NBJ57CD5wjmgKBAAAKFA3/qkdWAEAAPw00YHVbDaLmvP6WtvJAQAAfh4TL7m/ykXXWKn//e9/8t9//7n//TxsP9vP9rP9PxXbz/az/XHbT+d1AACAhhBYAQAANITACgAAoCEEVgAAAA0hsAIAAGgIgRUAAEBDCKwAAAAaQmAFAADQEAIrAACAhhBYAQAANITACgAAoBEi/w9y1Im3a4sN2AAAAABJRU5ErkJggg==;" parent="WIyWlLk6GJQsqaUBKTNV-1" vertex="1">
          <mxGeometry x="180" y="1050" width="598" height="476" as="geometry" />
        </mxCell>
      </root>
    </mxGraphModel>
  </diagram>
</mxfile>
